<svg xmlns="http://www.w3.org/2000/svg" width="1024" height="1024" viewBox="0 0 1024 1024">
  <defs>
    <pattern id="grain" width="12" height="12" patternUnits="userSpaceOnUse">
      <path d="M0 2h12M0 8h12" stroke="#ffffff" stroke-opacity=".22" stroke-width="1"/>
      <path d="M2 0v12M8 0v12" stroke="#713940" stroke-opacity=".10" stroke-width="1"/>
    </pattern>
    <linearGradient id="field" x1="0" y1="0" x2="1" y2="1">
      <stop stop-color="#f6e4bd"/>
      <stop offset=".55" stop-color="#f2d29f"/>
      <stop offset="1" stop-color="#f7e9ca"/>
    </linearGradient>
  </defs>
  <rect width="1024" height="1024" fill="url(#field)"/>
  <path d="M0 100 C170 170 270 20 450 100 S790 180 1024 85 V195 C800 280 650 180 470 210 S180 285 0 210Z" fill="#8a3156" fill-opacity=".83"/>
  <path d="M0 540 C180 470 310 620 490 530 S800 470 1024 570 V675 C810 590 650 675 480 620 S170 620 0 690Z" fill="#1f5870" fill-opacity=".82"/>
  <path d="M0 850 C160 770 310 920 500 840 S810 790 1024 880" fill="none" stroke="#d97347" stroke-width="22" stroke-linecap="round"/>
  <g fill="#f7e9ca" stroke="#8a3156" stroke-width="8">
    <path d="M130 300 l16 34 38 5-28 26 7 38-33-18-34 18 7-38-28-26 38-5z"/>
    <path d="M820 300 l16 34 38 5-28 26 7 38-33-18-34 18 7-38-28-26 38-5z"/>
    <path d="M160 700 l12 27 30 4-22 20 5 30-27-14-27 14 5-30-22-20 30-4z"/>
    <path d="M820 700 l12 27 30 4-22 20 5 30-27-14-27 14 5-30-22-20 30-4z"/>
  </g>
  <g transform="translate(440 290)" fill="#8a3156" stroke="#f7e9ca" stroke-width="9" stroke-linejoin="round">
    <circle cx="72" cy="48" r="42"/>
    <path d="M28 98 Q72 74 116 98 L140 210 L72 258 L4 210Z"/>
    <path d="M12 130 L-28 194 M132 130 L172 194 M48 250 L22 322 M96 250 L122 322" fill="none" stroke-linecap="round"/>
    <path d="M18 182 Q72 224 126 182" fill="none"/>
  </g>
  <g transform="translate(170 810) scale(.6)" fill="#1f5870" stroke="#f7e9ca" stroke-width="10" stroke-linejoin="round">
    <circle cx="72" cy="48" r="42"/>
    <path d="M28 98 Q72 74 116 98 L140 210 L72 258 L4 210Z"/>
    <path d="M12 130 L-28 194 M132 130 L172 194 M48 250 L22 322 M96 250 L122 322" fill="none" stroke-linecap="round"/>
  </g>
  <g transform="translate(740 810) scale(.6)" fill="#1f5870" stroke="#f7e9ca" stroke-width="10" stroke-linejoin="round">
    <circle cx="72" cy="48" r="42"/>
    <path d="M28 98 Q72 74 116 98 L140 210 L72 258 L4 210Z"/>
    <path d="M12 130 L-28 194 M132 130 L172 194 M48 250 L22 322 M96 250 L122 322" fill="none" stroke-linecap="round"/>
  </g>
  <rect width="1024" height="1024" fill="url(#grain)"/>
</svg>
